<?xml version="1.0" encoding="utf-8"?>
<!-- Generator: Adobe Illustrator 25.2.0, SVG Export Plug-In . SVG Version: 6.00 Build 0)  -->
<svg version="1.1" id="Calque_1" xmlns="http://www.w3.org/2000/svg" xmlns:xlink="http://www.w3.org/1999/xlink" x="0px" y="0px"
	 viewBox="0 0 156.8 62.8" style="enable-background:new 0 0 156.8 62.8;" xml:space="preserve">
<style type="text/css">
	.st0{fill:#FFFFFF;}
	.st1{fill:#5EC5EA;}
</style>
<path class="st0" d="M29.9,37.6h1.4V45h-1.4V37.6z"/>
<path class="st0" d="M34.9,37.6l3.8,5.1v-5.1h1.4V45h-1.4L35,40V45h-1.4v-7.5H34.9z"/>
<path class="st0" d="M47.6,37.6l0,1.2h-3.7v2h3.4v1.2h-3.4v3h-1.4v-7.5L47.6,37.6z"/>
<path class="st0" d="M56.4,41.3c0,2.1-1.7,3.8-4,3.8s-4-1.7-4-3.8c0-2.2,1.7-3.8,4-3.8S56.4,39.2,56.4,41.3 M49.9,41.3
	c0,1.4,1.2,2.5,2.5,2.5c1.4,0,2.5-1.1,2.5-2.5c0-1.4-1.1-2.5-2.5-2.5C51.1,38.8,49.9,39.9,49.9,41.3"/>
<path class="st0" d="M62.7,45l-1.3-2.2c-0.1,0-0.2,0-0.3,0h-1.7V45h-1.4v-7.5h3.1c1.9,0,3,0.9,3,2.6c0,1.2-0.5,2-1.5,2.4l1.6,2.5
	L62.7,45L62.7,45z M59.5,41.6h1.7c1.1,0,1.7-0.5,1.7-1.4c0-0.9-0.6-1.4-1.7-1.4h-1.7V41.6z"/>
<path class="st0" d="M67.8,37.6l2.3,4.8l2.3-4.8h1.6V45h-1.3l0-5.3l-2.2,4.6h-0.9l-2.2-4.6V45h-1.3v-7.5H67.8z"/>
<path class="st0" d="M81.3,43.5h-3.6L77,45.1h-1.5l3.3-7.5h1.5l3.2,7.5h-1.5L81.3,43.5z M80.8,42.2l-1.3-3.1l-1.3,3.1H80.8z"/>
<path class="st0" d="M89.3,37.6v1.3H87V45h-1.4v-6.2h-2.3v-1.3H89.3z"/>
<path class="st0" d="M90.7,37.6h1.4V45h-1.4V37.6z"/>
<path class="st0" d="M102.2,45.9c-0.6,0.5-1.4,0.8-2.1,0.8c-1,0-1.8-0.6-2.4-1.6c-2.2,0-3.9-1.7-3.9-3.8c0-2.2,1.7-3.8,4-3.8
	c2.2,0,4,1.6,4,3.8c0,1.7-1.1,3.1-2.6,3.6c0.3,0.4,0.7,0.6,1.1,0.6c0.4,0,0.9-0.2,1.3-0.6L102.2,45.9z M97.8,43.8
	c1.4,0,2.5-1.1,2.5-2.5c0-1.4-1.1-2.5-2.5-2.5c-1.4,0-2.5,1.1-2.5,2.5S96.4,43.8,97.8,43.8"/>
<path class="st0" d="M106.6,43.8c1.1,0,1.8-0.7,1.8-1.9v-4.3h1.4v4.3c0,2-1.2,3.2-3.3,3.2c-2,0-3.3-1.2-3.3-3.2v-4.3h1.4v4.3
	C104.8,43.1,105.5,43.8,106.6,43.8"/>
<path class="st0" d="M117.5,37.6v1.2h-4v1.8h3.6v1.2h-3.6v1.9h4.2V45H112v-7.5L117.5,37.6z"/>
<g>
	<path class="st1" d="M67.3,30.1c6.5,0,11.7-5.1,11.7-11.5S73.7,7.1,67.3,7.1s-11.7,5.1-11.7,11.5S60.8,30.1,67.3,30.1z M67.3,12.6
		c3.4,0,6.1,2.7,6.1,6c0,3.3-2.7,6-6.1,6s-6.1-2.7-6.1-6C61.1,15.3,63.9,12.6,67.3,12.6z"/>
	<path class="st1" d="M29.8,30.1h5.6V18.8c0-3.4,2.7-6.2,6.1-6.2s6.1,2.8,6.1,6.2v11.2h5.6V18.8C53.2,12.3,48,7,41.5,7
		s-11.7,5.3-11.7,11.8L29.8,30.1L29.8,30.1z"/>
	<path class="st1" d="M17.2,19c0-0.8-0.1-1.5-0.4-2.2L13,7H7l6.7,17.3C15.8,23.5,17.2,21.4,17.2,19z"/>
	<path class="st1" d="M92.9,30.1l8.9-23h-6l-8.9,23H92.9z"/>
	<path class="st1" d="M88.2,19c0-0.8-0.1-1.5-0.4-2.2L84,7h-6l6.7,17.3C86.7,23.5,88.2,21.4,88.2,19z"/>
	<path class="st1" d="M24.8,7.1l-14.7,38h6L30.8,7L24.8,7.1z"/>
</g>
</svg>
